<?xml version="1.0" standalone="no"?><!DOCTYPE svg PUBLIC "-//W3C//DTD SVG 1.1//EN" "http://www.w3.org/Graphics/SVG/1.1/DTD/svg11.dtd"><svg t="1634662040008" class="icon" viewBox="0 0 1024 1024" version="1.1" xmlns="http://www.w3.org/2000/svg" p-id="4571" width="26" height="26" xmlns:xlink="http://www.w3.org/1999/xlink"><defs><style type="text/css"></style></defs><path d="M264.789333 627.626667a42.965333 42.965333 0 0 1-60.288 0 41.856 41.856 0 0 1 0-59.648l247.210667-244.608a85.930667 85.930667 0 0 1 120.576 0l247.210667 244.608a41.856 41.856 0 0 1 0 59.648 42.965333 42.965333 0 0 1-60.288 0L512 383.018667 264.789333 627.626667z" fill="#515151" p-id="4572"></path><path d="M512 1024c282.752 0 512-229.248 512-512S794.752 0 512 0 0 229.248 0 512s229.248 512 512 512z m0-85.333333C276.352 938.666667 85.333333 747.648 85.333333 512S276.352 85.333333 512 85.333333s426.666667 191.018667 426.666667 426.666667-191.018667 426.666667-426.666667 426.666667z" fill="#515151" p-id="4573"></path></svg>